<?xml version="1.0" standalone="no"?>
<!DOCTYPE svg PUBLIC "-//W3C//DTD SVG 20010904//EN"
 "http://www.w3.org/TR/2001/REC-SVG-20010904/DTD/svg10.dtd">
<svg version="1.0" xmlns="http://www.w3.org/2000/svg"
 width="180.000000pt" height="180.000000pt" viewBox="0 0 180.000000 180.000000"
 preserveAspectRatio="xMidYMid meet">
<metadata>
Created by potrace 1.14, written by Peter Selinger 2001-2017
</metadata>
<g transform="translate(0.000000,180.000000) scale(0.100000,-0.100000)"
fill="#000000" stroke="none">
<path d="M789 1485 c-66 -13 -164 -56 -207 -91 l-23 -19 63 -62 63 -63 65 28
c53 22 80 27 150 27 70 0 97 -5 150 -27 l65 -28 63 63 63 62 -23 19 c-39 32
-141 76 -214 91 -82 18 -127 17 -215 0z"/>
<path d="M358 1441 c-26 -23 -32 -36 -31 -66 2 -85 98 -120 154 -57 16 18 29
41 29 52 0 51 -49 100 -99 100 -12 0 -35 -13 -53 -29z"/>
<path d="M1343 1451 c-60 -38 -53 -125 14 -156 29 -14 40 -15 64 -4 61 24 78
96 37 143 -31 35 -75 42 -115 17z"/>
<path d="M383 1178 c-70 -117 -96 -261 -69 -388 17 -82 79 -218 103 -227 10
-4 36 15 74 55 l59 60 -27 59 c-47 105 -41 254 14 342 14 23 13 26 -48 87 -35
35 -66 64 -69 64 -3 0 -20 -24 -37 -52z"/>
<path d="M1307 1172 c-31 -32 -57 -62 -57 -68 0 -6 7 -24 15 -40 8 -16 22 -58
30 -93 20 -76 14 -139 -22 -230 l-25 -63 65 -66 65 -65 31 54 c65 114 75 152
75 294 1 120 -2 135 -27 195 -29 69 -72 140 -85 140 -4 0 -33 -26 -65 -58z"/>
<path d="M895 900 c-3 -5 -1 -10 4 -10 6 0 11 5 11 10 0 6 -2 10 -4 10 -3 0
-8 -4 -11 -10z"/>
<path d="M1150 640 c0 -5 5 -10 10 -10 6 0 10 5 10 10 0 6 -4 10 -10 10 -5 0
-10 -4 -10 -10z"/>
<path d="M619 484 c-73 -74 -75 -69 46 -128 164 -81 363 -70 523 26 28 18 52
35 52 38 0 3 -29 34 -64 69 -50 49 -68 62 -78 54 -7 -6 -38 -21 -68 -33 -84
-33 -188 -30 -278 8 l-70 29 -63 -63z"/>
<path d="M369 485 c-29 -16 -52 -66 -42 -93 3 -9 17 -29 31 -44 68 -74 183 12
137 102 -25 48 -76 62 -126 35z"/>
<path d="M1343 490 c-12 -5 -29 -23 -38 -40 -46 -90 69 -176 137 -102 34 36
39 56 26 92 -16 48 -73 71 -125 50z"/>
</g>
</svg>
